<svg width="12" height="10" viewBox="0 0 12 10" fill="none" xmlns="http://www.w3.org/2000/svg">
<path d="M8.32901 0.283118C8.84127 -0.114574 9.51402 -0.0863135 10.0187 0.323976C10.4826 0.692795 10.8249 1.23407 10.9893 1.8589C11.0514 2.09637 11.0476 2.35055 10.9785 2.58538C10.9094 2.82021 10.7784 3.02379 10.6042 3.16723C10.4299 3.31067 10.2213 3.3867 10.0078 3.38453C9.79427 3.38236 9.58679 3.30211 9.41473 3.15515L7.72919 1.7142C7.72919 0.968523 8.0045 0.53508 8.32901 0.284139V0.283118Z" fill="url(#paint0_linear_1_378)"/>
<path d="M3.17423 0.283118C2.66198 -0.114574 1.98922 -0.0863135 1.48517 0.323976C1.02122 0.692795 0.678942 1.23407 0.514555 1.8589C0.452441 2.09637 0.456214 2.35055 0.52534 2.58538C0.594465 2.82021 0.725434 3.02379 0.899671 3.16723C1.07391 3.31067 1.28257 3.3867 1.49606 3.38453C1.70956 3.38236 1.91704 3.30211 2.0891 3.15515L3.77464 1.7142C3.77464 0.968523 3.49933 0.53508 3.17482 0.284139L3.17423 0.283118Z" fill="url(#paint1_linear_1_378)"/>
<path d="M2.86173 1.56023C2.76695 1.45022 2.63849 1.38843 2.50456 1.38843C2.37063 1.38843 2.24217 1.45022 2.14739 1.56023C1.71278 2.06144 1.3586 2.6488 1.1015 3.29468C1.26274 3.37177 1.43832 3.39935 1.61138 3.37479C1.78443 3.35022 1.94915 3.27433 2.08969 3.1544L2.93905 2.27492C2.99635 2.16275 3.01985 2.03158 3.00585 1.90215C2.99185 1.77272 2.94114 1.6524 2.86173 1.56023Z" fill="#5C586F"/>
<path d="M9.95273 6.7523C9.70436 8.86334 8.5381 9.99989 5.75161 9.99989C2.56591 9.99989 1.49835 8.51536 1.49835 5.78463C1.49859 5.00767 1.65624 4.2417 1.95853 3.54875C2.26081 2.85581 2.69924 2.25538 3.23829 1.79608C3.77734 1.33679 4.40187 1.03155 5.06128 0.905086C5.7207 0.778623 6.39646 0.834492 7.03385 1.06817L9.95273 6.7523Z" fill="url(#paint2_linear_1_378)"/>
<path d="M10.0051 5.78614C10.0063 6.1097 9.98883 6.43299 9.95264 6.75381C9.54656 6.88458 9.11998 6.9045 8.70619 6.81204C8.29239 6.71957 7.90257 6.51722 7.56712 6.22075C7.23168 5.92429 6.95969 5.54174 6.77237 5.10294C6.58505 4.66414 6.48747 4.18097 6.48724 3.69111C6.48724 2.32915 6.60674 1.52695 7.0323 1.06934C7.8947 1.38619 8.64782 2.01427 9.18237 2.86242C9.71692 3.71058 10.0051 4.73469 10.0051 5.78614Z" fill="url(#paint3_linear_1_378)"/>
<path d="M2.87874 5.75382C3.14839 5.75382 3.36698 5.54955 3.36698 5.29757C3.36698 5.04558 3.14839 4.84131 2.87874 4.84131C2.60909 4.84131 2.3905 5.04558 2.3905 5.29757C2.3905 5.54955 2.60909 5.75382 2.87874 5.75382Z" fill="#FFAECF"/>
<path d="M8.62447 5.75382C8.89412 5.75382 9.11271 5.54955 9.11271 5.29757C9.11271 5.04558 8.89412 4.84131 8.62447 4.84131C8.35482 4.84131 8.13623 5.04558 8.13623 5.29757C8.13623 5.54955 8.35482 5.75382 8.62447 5.75382Z" fill="#FFAECF"/>
<path d="M4.67183 4.35263C4.75752 3.73898 4.39907 3.16076 3.87121 3.06116C3.34336 2.96155 2.84599 3.37826 2.76031 3.99191C2.67462 4.60556 3.03307 5.18378 3.56093 5.28339C4.08878 5.383 4.58615 4.96628 4.67183 4.35263Z" fill="white"/>
<path d="M7.78755 5.29746C8.32231 5.29746 8.75582 4.79348 8.75582 4.1718C8.75582 3.55012 8.32231 3.04614 7.78755 3.04614C7.25279 3.04614 6.81927 3.55012 6.81927 4.1718C6.81927 4.79348 7.25279 5.29746 7.78755 5.29746Z" fill="white"/>
<path d="M4.29779 4.25249C4.34878 3.88574 4.13437 3.54039 3.8189 3.48111C3.50342 3.42184 3.20635 3.6711 3.15537 4.03785C3.10438 4.4046 3.31879 4.74995 3.63426 4.80923C3.94973 4.8685 4.2468 4.61924 4.29779 4.25249Z" fill="#383842"/>
<path d="M7.78743 4.84263C8.10609 4.84263 8.36441 4.54232 8.36441 4.17186C8.36441 3.80141 8.10609 3.5011 7.78743 3.5011C7.46877 3.5011 7.21045 3.80141 7.21045 4.17186C7.21045 4.54232 7.46877 4.84263 7.78743 4.84263Z" fill="#383842"/>
<path d="M6.07287 5.63967C5.95739 5.6388 5.84493 5.59672 5.75069 5.51914C5.65646 5.59672 5.544 5.6388 5.42852 5.63967C5.3472 5.63761 5.26712 5.616 5.19333 5.57621C5.11954 5.53643 5.05363 5.47932 4.99974 5.40848C4.98638 5.39178 4.97597 5.37218 4.96912 5.3508C4.96227 5.32943 4.95911 5.30669 4.95981 5.2839C4.96052 5.2611 4.96508 5.23869 4.97324 5.21794C4.9814 5.1972 4.99299 5.17852 5.00736 5.16298C5.02172 5.14745 5.03858 5.13535 5.05697 5.12739C5.07535 5.11942 5.09491 5.11575 5.11452 5.11657C5.13413 5.11739 5.1534 5.12269 5.17125 5.13218C5.1891 5.14166 5.20516 5.15514 5.21853 5.17184C5.24363 5.20939 5.27579 5.23978 5.31254 5.26068C5.34929 5.28158 5.38966 5.29245 5.43057 5.29245C5.47148 5.29245 5.51186 5.28158 5.54861 5.26068C5.58536 5.23978 5.61751 5.20939 5.64262 5.17184C5.6566 5.15441 5.67351 5.14052 5.6923 5.13102C5.7111 5.12152 5.73137 5.11661 5.75187 5.11661C5.77236 5.11661 5.79264 5.12152 5.81143 5.13102C5.83022 5.14052 5.84714 5.15441 5.86111 5.17184C5.88622 5.20939 5.91838 5.23978 5.95513 5.26068C5.99187 5.28158 6.03225 5.29245 6.07316 5.29245C6.11407 5.29245 6.15444 5.28158 6.19119 5.26068C6.22794 5.23978 6.2601 5.20939 6.28521 5.17184C6.29857 5.15514 6.31464 5.14166 6.33248 5.13218C6.35033 5.12269 6.36961 5.11739 6.38921 5.11657C6.40882 5.11575 6.42838 5.11942 6.44677 5.12739C6.46515 5.13535 6.48201 5.14745 6.49638 5.16298C6.51074 5.17852 6.52233 5.1972 6.53049 5.21794C6.53865 5.23869 6.54321 5.2611 6.54392 5.2839C6.54462 5.30669 6.54146 5.32943 6.53461 5.3508C6.52776 5.37218 6.51736 5.39178 6.50399 5.40848C6.44987 5.47961 6.38363 5.53689 6.30947 5.57669C6.2353 5.61649 6.15483 5.63793 6.07316 5.63967H6.07287Z" fill="#383842"/>
<path d="M6.28202 4.38435C6.28202 4.5832 6.04449 4.74391 5.7516 4.74391C5.45872 4.74391 5.22119 4.5832 5.22119 4.38435C5.22119 4.18551 5.45872 4.16235 5.7516 4.16235C6.04449 4.16235 6.28202 4.18585 6.28202 4.38435Z" fill="#383842"/>
<defs>
<linearGradient id="paint0_linear_1_378" x1="7.72987" y1="1.69129" x2="11.0342" y2="1.69129" gradientUnits="userSpaceOnUse">
<stop stop-color="#4F4C5F"/>
<stop offset="1" stop-color="#77718A"/>
</linearGradient>
<linearGradient id="paint1_linear_1_378" x1="0.470124" y1="1.69129" x2="3.7745" y2="1.69129" gradientUnits="userSpaceOnUse">
<stop stop-color="#77718A"/>
<stop offset="1" stop-color="#4F4C5F"/>
</linearGradient>
<linearGradient id="paint2_linear_1_378" x1="5.72618" y1="9.99961" x2="5.72618" y2="0.838549" gradientUnits="userSpaceOnUse">
<stop stop-color="#F0A83E"/>
<stop offset="1" stop-color="#FFF5E3"/>
</linearGradient>
<linearGradient id="paint3_linear_1_378" x1="6.48788" y1="3.96717" x2="10.0059" y2="3.96717" gradientUnits="userSpaceOnUse">
<stop stop-color="#EFC4AB"/>
<stop offset="1" stop-color="#3C2313"/>
</linearGradient>
</defs>
</svg>
