<svg width="46" height="36" viewBox="0 0 46 36" fill="none" xmlns="http://www.w3.org/2000/svg">
<path d="M36.0201 14.2347V4.6694C36.0201 2.56991 34.3246 0.862549 32.2395 0.862549H3.88584C1.80087 0.862549 0.105408 2.56982 0.105408 4.6694V23.7035C0.105408 25.8029 1.80087 27.5103 3.88593 27.5103H25.0816C26.32 31.8976 30.3263 35.1239 35.075 35.1239C36.9025 35.1239 38.6995 34.6397 40.2741 33.7224C40.7254 33.4594 40.8805 32.8776 40.6183 32.4222C40.3571 31.9668 39.7784 31.8097 39.3271 32.0755C38.0404 32.8247 36.5701 33.2205 35.0749 33.2205C30.3843 33.2205 26.5688 29.3784 26.5688 24.6552C26.5688 19.932 30.3844 16.0899 35.0749 16.0899C39.7654 16.0899 43.581 19.932 43.581 24.6552V25.6069C43.581 26.6562 42.7328 27.5103 41.6908 27.5103C40.6488 27.5103 39.8006 26.6562 39.8006 25.6069V21.8001C39.8006 21.274 39.3778 20.8483 38.8554 20.8483C38.6012 20.8483 38.3728 20.9519 38.2031 21.116C37.3677 20.3665 36.2791 19.8966 35.0749 19.8966C32.4694 19.8966 30.3493 22.0314 30.3493 24.6551C30.3493 27.2788 32.4694 29.4137 35.075 29.4137C36.4835 29.4137 37.7358 28.7774 38.6024 27.7897C39.287 28.7691 40.4135 29.4137 41.6909 29.4137C43.7758 29.4137 45.4713 27.7064 45.4713 25.6068V24.6551C45.4713 19.2039 41.3108 14.7177 36.0201 14.2347ZM3.88593 2.76593H32.2396C32.279 2.76593 32.3119 2.78618 32.3507 2.78859L18.8399 13.9559C18.3591 14.2608 17.6622 14.1975 17.3493 14.0043L3.77597 2.78841C3.81434 2.78609 3.84694 2.76593 3.88593 2.76593ZM34.1298 14.2347C28.8391 14.7177 24.6786 19.2039 24.6786 24.6552C24.6786 24.9764 24.6982 25.293 24.7264 25.6069H3.88593C2.84393 25.6069 1.99571 24.7528 1.99571 23.7035V4.6694C1.99571 4.39986 2.05481 4.1453 2.15565 3.91279L16.2335 15.5378C16.7836 15.8994 17.4159 16.0899 18.0629 16.0899C18.685 16.0899 19.2931 15.9134 19.8285 15.5788C19.882 15.55 19.9328 15.5156 19.9808 15.4756L33.9698 3.91261C34.0707 4.1453 34.1299 4.39986 34.1299 4.66949V14.2347H34.1298ZM35.075 27.5103C33.5115 27.5103 32.2396 26.2296 32.2396 24.6552C32.2396 23.0808 33.5115 21.8001 35.075 21.8001C36.6385 21.8001 37.9104 23.0808 37.9104 24.6552C37.9104 26.2296 36.6385 27.5103 35.075 27.5103Z" fill="white"/>
</svg>
