<svg width="45" height="45" viewBox="0 0 45 45" fill="none" xmlns="http://www.w3.org/2000/svg">
<g clip-path="url(#clip0_1_296)">
<path d="M35.5634 27.8758C34.6421 26.9165 33.5309 26.4037 32.3532 26.4037C31.185 26.4037 30.0643 26.907 29.105 27.8663L26.1038 30.858C25.8569 30.7251 25.6099 30.6016 25.3725 30.4781C25.0306 30.3072 24.7077 30.1457 24.4322 29.9747C21.621 28.1892 19.0661 25.8623 16.6157 22.8516C15.4286 21.351 14.6308 20.0878 14.0514 18.8056C14.8302 18.0933 15.552 17.3525 16.2548 16.6402C16.5208 16.3742 16.7867 16.0988 17.0526 15.8329C19.0471 13.8384 19.0471 11.2551 17.0526 9.26057L14.4598 6.66774C14.1654 6.37331 13.8615 6.06939 13.5765 5.76547C13.0067 5.17662 12.4083 4.56878 11.791 3.99892C10.8697 3.08716 9.76801 2.60278 8.60931 2.60278C7.45061 2.60278 6.32989 3.08716 5.38014 3.99892C5.37064 4.00842 5.37064 4.00842 5.36114 4.01792L2.13197 7.27558C0.916285 8.49127 0.222963 9.97289 0.0710024 11.6919C-0.156939 14.4652 0.659851 17.0486 1.28669 18.7391C2.82529 22.8896 5.1237 26.7361 8.55232 30.858C12.7123 35.8252 17.7175 39.7477 23.435 42.5115C25.6194 43.5468 28.5352 44.7719 31.7929 44.9809C31.9923 44.9904 32.2012 44.9999 32.3912 44.9999C34.5851 44.9999 36.4277 44.2116 37.8713 42.6445C37.8808 42.6255 37.8998 42.616 37.9093 42.597C38.4032 41.9987 38.973 41.4573 39.5714 40.8779C39.9797 40.4885 40.3976 40.0802 40.806 39.6528C41.7463 38.6745 42.2402 37.5348 42.2402 36.3666C42.2402 35.1889 41.7368 34.0587 40.7775 33.1089L35.5634 27.8758ZM38.9635 37.8767C38.954 37.8767 38.954 37.8862 38.9635 37.8767C38.5931 38.2756 38.2132 38.6365 37.8048 39.0354C37.1875 39.6243 36.5606 40.2416 35.9718 40.9349C35.0125 41.9607 33.8823 42.445 32.4007 42.445C32.2582 42.445 32.1063 42.445 31.9638 42.4355C29.143 42.2551 26.5217 41.1534 24.5557 40.2131C19.1801 37.6108 14.4598 33.9162 10.5373 29.2339C7.29865 25.3304 5.1332 21.7214 3.69907 17.8464C2.8158 15.4815 2.49288 13.6389 2.63534 11.9009C2.73032 10.7897 3.15771 9.86842 3.94601 9.08012L7.18467 5.84145C7.65005 5.40456 8.14393 5.16712 8.6283 5.16712C9.22665 5.16712 9.71103 5.52803 10.0149 5.83195C10.0244 5.84145 10.0339 5.85095 10.0434 5.86045C10.6228 6.40181 11.1736 6.96216 11.753 7.56051C12.0474 7.86443 12.3513 8.16835 12.6553 8.48177L15.2481 11.0746C16.2548 12.0813 16.2548 13.0121 15.2481 14.0189C14.9727 14.2943 14.7067 14.5697 14.4313 14.8356C13.6335 15.6524 12.8737 16.4122 12.0474 17.153C12.0284 17.172 12.0094 17.1815 11.9999 17.2005C11.1831 18.0173 11.3351 18.8151 11.5061 19.3565C11.5156 19.385 11.5251 19.4135 11.5346 19.442C12.2089 21.0755 13.1586 22.6141 14.6023 24.4472L14.6118 24.4567C17.2331 27.6858 19.9969 30.2027 23.0456 32.1307C23.435 32.3776 23.8339 32.5771 24.2138 32.767C24.5557 32.938 24.8786 33.0994 25.1541 33.2704C25.192 33.2894 25.23 33.3179 25.268 33.3369C25.5909 33.4983 25.8949 33.5743 26.2083 33.5743C26.9966 33.5743 27.4905 33.0805 27.6519 32.919L30.9001 29.6708C31.223 29.3479 31.7359 28.9585 32.3342 28.9585C32.9231 28.9585 33.4074 29.3289 33.7019 29.6518C33.7114 29.6613 33.7114 29.6613 33.7209 29.6708L38.954 34.904C39.9323 35.8727 39.9323 36.87 38.9635 37.8767Z" fill="white"/>
<path d="M24.3192 10.7043C26.8076 11.1222 29.068 12.2999 30.8725 14.1044C32.6771 15.9089 33.8453 18.1694 34.2726 20.6577C34.3771 21.2846 34.9185 21.7215 35.5358 21.7215C35.6118 21.7215 35.6783 21.712 35.7543 21.7025C36.4571 21.5885 36.9225 20.9237 36.8085 20.2208C36.2956 17.2101 34.871 14.4653 32.696 12.2904C30.5211 10.1154 27.7763 8.6908 24.7656 8.17793C24.0628 8.06396 23.4074 8.52934 23.284 9.22266C23.1605 9.91599 23.6164 10.5903 24.3192 10.7043Z" fill="white"/>
<path d="M44.9479 19.8504C44.1026 14.8927 41.7662 10.3814 38.1761 6.79131C34.586 3.20123 30.0747 0.86483 25.117 0.0195474C24.4236 -0.103921 23.7683 0.370957 23.6448 1.06428C23.5309 1.7671 23.9963 2.42243 24.6991 2.5459C29.1249 3.2962 33.1614 5.39516 36.3716 8.59584C39.5817 11.806 41.6712 15.8425 42.4215 20.2683C42.526 20.8952 43.0673 21.3321 43.6847 21.3321C43.7607 21.3321 43.8271 21.3226 43.9031 21.3131C44.5964 21.2086 45.0713 20.5438 44.9479 19.8504Z" fill="white"/>
</g>
<defs>
<clipPath id="clip0_1_296">
<rect width="45" height="45" fill="white"/>
</clipPath>
</defs>
</svg>
